<svg xmlns="http://www.w3.org/2000/svg" viewBox="0 0 680 606.04"><defs><style>.cls-1{fill:#53bee3;}</style></defs><title>snowflake</title><g id="Ebene_2" data-name="Ebene 2"><g id="Layer_1" data-name="Layer 1"><path class="cls-1" d="M281.16,168.68c-15.67-4.8-57.5-14.89-95.52-.27a2.46,2.46,0,0,0-1.55,1.87,2.52,2.52,0,0,0,.78,2.31L205.42,191a2.52,2.52,0,0,0,2,.61c38.48-5.25,70.84.3,93.64,16,9.68,20.18,19.5,45.71,29.93,78a2.5,2.5,0,0,0,2.36,1.72,2.75,2.75,0,0,0,.72-.1,21.54,21.54,0,0,1,4.45-.85,2.49,2.49,0,0,0,2.27-2.78,427.39,427.39,0,0,0-25.67-103.84,167.29,167.29,0,0,1,16.08-39.22c13.47-23.9,33.47-45.79,57.82-63.33a2.49,2.49,0,0,0,1-1.53l5.66-28.3A2.48,2.48,0,0,0,392,44.72c-25.11,14-46.52,31.35-63.63,51.65a185.21,185.21,0,0,0-29.18,47.23C289.44,124.88,254,62.48,187,.66a2.51,2.51,0,0,0-2.92-.33L157.21,15.56a2.49,2.49,0,0,0-1.26,2,2.52,2.52,0,0,0,1,2.14C219.65,68.62,268.43,147.09,281.16,168.68Z"/><path class="cls-1" d="M378.58,102a2.49,2.49,0,0,0-4,1.42l-5.62,27a2.5,2.5,0,0,0,.46,2c23.77,30.73,35.15,61.52,32.92,89.13-12.67,18.56-29.87,39.79-52.54,64.94a2.5,2.5,0,0,0,.13,3.48,20.62,20.62,0,0,1,3,3.43,2.54,2.54,0,0,0,1.64,1,3.54,3.54,0,0,0,.4,0,2.48,2.48,0,0,0,1.48-.49,428.89,428.89,0,0,0,77.08-74.14,166,166,0,0,1,42-5.71c27.4-.26,56.32,6.11,83.73,18.44a2.47,2.47,0,0,0,1.82.08l27.33-9.24a2.49,2.49,0,0,0,.49-4.48c-24.68-14.79-50.43-24.63-76.52-29.29A184.51,184.51,0,0,0,456.84,188c11.33-17.89,47.71-80,67.67-168.68a2.51,2.51,0,0,0-1.16-2.7L496.69,1A2.48,2.48,0,0,0,493,2.74c-11,78.85-54.55,160.33-66.87,182.16C422.42,168.93,410.23,127.64,378.58,102Z"/><path class="cls-1" d="M678.91,285.79a2.52,2.52,0,0,0-2.33-.26c-73.74,29.92-166.06,32.93-191.11,33.17,12-11.18,41.64-42.39,48-82.63a2.48,2.48,0,0,0-3.24-2.74L504,242a2.54,2.54,0,0,0-1.53,1.42c-14.68,35.95-35.66,61.2-60.68,73.09-22.5-1.72-49.49-6-82.5-13.05a2.49,2.49,0,0,0-2.94,1.87,20.78,20.78,0,0,1-1.48,4.28,2.5,2.5,0,0,0-.08,1.95,2.46,2.46,0,0,0,1.34,1.4A428.43,428.43,0,0,0,458.91,342.6a166.93,166.93,0,0,1,25.9,33.52c13.93,23.57,22.9,51.82,25.91,81.74a2.48,2.48,0,0,0,.83,1.61l21.68,19.1a2.51,2.51,0,0,0,1.64.62,2.83,2.83,0,0,0,1-.21,2.51,2.51,0,0,0,1.47-2.23c.48-28.7-3.86-55.94-12.89-81a183.65,183.65,0,0,0-26.31-48.89c21.08.91,92.54,1.47,179.88-25.74a2.49,2.49,0,0,0,1.74-2.36l.24-30.94A2.46,2.46,0,0,0,678.91,285.79Z"/><path class="cls-1" d="M399.3,437.33c15.68,4.79,57.55,14.87,95.56.26a2.52,2.52,0,0,0,1.55-1.88,2.49,2.49,0,0,0-.78-2.3L475.07,415a2.54,2.54,0,0,0-2-.62c-38.47,5.27-70.83-.29-93.64-16-9.68-20.2-19.5-45.71-30-78a2.49,2.49,0,0,0-3-1.63,22.78,22.78,0,0,1-4.48.86,2.53,2.53,0,0,0-1.71.91,2.49,2.49,0,0,0-.54,1.85,427.14,427.14,0,0,0,25.66,103.85,167.23,167.23,0,0,1-16.07,39.2c-13.45,23.88-33.46,45.78-57.82,63.31a2.49,2.49,0,0,0-1,1.53l-5.66,28.34a2.49,2.49,0,0,0,3.64,2.67c25.08-14,46.49-31.34,63.63-51.66a184.57,184.57,0,0,0,29.17-47.26c9.81,18.75,45.36,81.29,112.21,143a2.46,2.46,0,0,0,1.68.65,2.61,2.61,0,0,0,1.23-.32l26.92-15.27a2.51,2.51,0,0,0,.3-4.13C460.8,537.38,412,458.9,399.3,437.33Z"/><path class="cls-1" d="M301.45,504.17a2.49,2.49,0,0,0,2.39.41,2.53,2.53,0,0,0,1.61-1.83l5.62-27a2.5,2.5,0,0,0-.48-2c-23.77-30.73-35.13-61.54-32.9-89.13,12.7-18.6,29.88-39.86,52.52-65a2.5,2.5,0,0,0-.16-3.48,22.47,22.47,0,0,1-2.94-3.43,2.52,2.52,0,0,0-1.64-1,2.48,2.48,0,0,0-1.88.46,426.64,426.64,0,0,0-77.06,74.14,166.35,166.35,0,0,1-42,5.68c-27.31.29-56.29-6.08-83.73-18.41a2.56,2.56,0,0,0-1.82-.1l-27.35,9.25a2.48,2.48,0,0,0-.48,4.48c24.63,14.77,50.39,24.62,76.52,29.29a184.72,184.72,0,0,0,55.48,1.64c-11.33,17.76-47.5,79.27-67.63,168.69a2.49,2.49,0,0,0,1.16,2.7l26.64,15.68a2.52,2.52,0,0,0,1.26.33,2.63,2.63,0,0,0,1.09-.24,2.47,2.47,0,0,0,1.37-1.9c11-78.87,54.53-160.37,66.84-182.18C257.57,437.24,269.79,478.56,301.45,504.17Z"/><path class="cls-1" d="M146.58,370.15A2.48,2.48,0,0,0,149,373a2.67,2.67,0,0,0,.78-.13L176,364.28a2.46,2.46,0,0,0,1.53-1.42c14.69-35.95,35.66-61.2,60.68-73.09,22.5,1.72,49.49,6,82.5,13.05a2.46,2.46,0,0,0,2.94-1.85,21.56,21.56,0,0,1,1.48-4.28,2.46,2.46,0,0,0-1.26-3.33,425.8,425.8,0,0,0-102.72-29.71,166.93,166.93,0,0,1-25.93-33.52c-13.94-23.58-22.9-51.85-25.89-81.75a2.52,2.52,0,0,0-.83-1.61l-21.7-19.08a2.48,2.48,0,0,0-2.65-.4,2.45,2.45,0,0,0-1.47,2.23c-.46,28.26,4,56.24,12.89,80.92a184.78,184.78,0,0,0,26.31,48.92c-21.06-.91-92.63-1.47-179.88,25.7a2.5,2.5,0,0,0-1.74,2.36L0,318.36a2.51,2.51,0,0,0,3.43,2.33c73.76-29.92,166.08-32.92,191.13-33.17C182.57,298.71,152.9,329.92,146.58,370.15Z"/></g></g></svg>